<svg aria-hidden="true" style="position: absolute; width: 0; height: 0; overflow: hidden;" version="1.1" xmlns="http://www.w3.org/2000/svg" xmlns:xlink="http://www.w3.org/1999/xlink">
    <defs>
        <symbol id="icon---path" viewBox="0 0 38 32">
            <path d="M24.411 7.567l-5.408 7.655c-0.228 0.333-0.569 0.55-0.945 0.601s-0.756-0.067-1.051-0.328l-5.192-4.465-4.676 6.634c-0.339 0.59-0.998 0.855-1.605 0.645s-1.007-0.842-0.975-1.538c-0.003-0.344 0.103-0.679 0.3-0.948l5.591-7.91c0.225-0.33 0.562-0.547 0.934-0.602s0.75 0.057 1.046 0.31l5.192 4.484 4.559-6.434c0.219-0.332 0.552-0.552 0.922-0.61s0.746 0.050 1.042 0.3c0.611 0.524 0.729 1.486 0.266 2.169v0.036z"></path>
            <path stroke-linejoin="miter" stroke-linecap="butt" stroke-miterlimit="4" stroke-width="0.3556" d="M18.858 15.119v0l-0.002 0.002c-0.201 0.294-0.499 0.481-0.823 0.526s-0.651-0.057-0.91-0.285l-0.002-0.002-5.34-4.593-4.798 6.808c-0.3 0.522-0.873 0.745-1.392 0.565-0.524-0.181-0.884-0.735-0.855-1.361h0l-0-0.010c-0.003-0.307 0.092-0.605 0.265-0.841h0l0.002-0.002 5.593-7.912c0.199-0.292 0.493-0.479 0.813-0.526s0.645 0.048 0.904 0.269c0 0 0 0 0 0l5.339 4.611 4.676-6.598c0.194-0.293 0.484-0.483 0.801-0.533s0.641 0.042 0.899 0.26c0.54 0.463 0.649 1.324 0.235 1.934l-0.031 0.045v0.035l-5.376 7.609z"></path>
        </symbol>
        <symbol id="icon-instagram" viewBox="0 0 32 32">
            <path stroke-linejoin="round" stroke-linecap="round" stroke-miterlimit="4" stroke-width="2.6667" d="M22.667 2.667h-13.333c-3.682 0-6.667 2.985-6.667 6.667v13.333c0 3.682 2.985 6.667 6.667 6.667h13.333c3.682 0 6.667-2.985 6.667-6.667v-13.333c0-3.682-2.985-6.667-6.667-6.667z"></path>
            <path stroke-linejoin="round" stroke-linecap="round" stroke-miterlimit="4" stroke-width="2.6667" d="M21.333 15.16c0.165 1.11-0.025 2.243-0.542 3.239s-1.334 1.803-2.336 2.308c-1.002 0.504-2.138 0.68-3.245 0.502s-2.131-0.701-2.924-1.494-1.316-1.816-1.494-2.924c-0.178-1.107-0.003-2.243 0.502-3.245s1.312-1.82 2.307-2.336c0.996-0.517 2.129-0.706 3.239-0.542 1.132 0.168 2.18 0.695 2.989 1.504s1.337 1.857 1.505 2.989z"></path>
            <path stroke-linejoin="round" stroke-linecap="round" stroke-miterlimit="4" stroke-width="2.6667" d="M23.333 8.667h0.013"></path>
        </symbol>
        <symbol id="icon-facebook" viewBox="0 0 32 32">
            <path stroke-linejoin="round" stroke-linecap="round" stroke-miterlimit="4" stroke-width="2.6667" d="M24 2.667h-4c-1.768 0-3.464 0.702-4.714 1.953s-1.953 2.946-1.953 4.714v4h-4v5.333h4v10.667h5.333v-10.667h4l1.333-5.333h-5.333v-4c0-0.354 0.141-0.693 0.391-0.943s0.589-0.391 0.943-0.391h4v-5.333z"></path>
        </symbol>
        <symbol id="icon-twitter" viewBox="0 0 32 32">
            <path stroke-linejoin="round" stroke-linecap="round" stroke-miterlimit="4" stroke-width="2.6667" d="M30.667 4.013c-1.277 0.901-2.691 1.589-4.187 2.040-0.803-0.923-1.87-1.578-3.057-1.875s-2.437-0.222-3.58 0.214c-1.143 0.436-2.125 1.213-2.812 2.226s-1.047 2.211-1.031 3.435v1.333c-2.343 0.061-4.665-0.459-6.759-1.513s-3.894-2.609-5.241-4.527c0 0-5.333 12 6.667 17.333-2.746 1.864-6.017 2.799-9.333 2.667 12 6.667 26.667 0 26.667-15.333-0.001-0.371-0.037-0.742-0.107-1.107 1.361-1.342 2.321-3.036 2.773-4.893v0z"></path>
        </symbol>
        <symbol id="icon-Group" viewBox="0 0 188 32">
            <path fill="#f3cd03" style="fill: var(--color2, #f3cd03)" d="M32.404 11.487c-0.102-0.296-0.29-0.556-0.541-0.749s-0.553-0.308-0.869-0.333l-9.261-0.725-4.008-8.736c-0.128-0.281-0.335-0.52-0.598-0.688s-0.569-0.257-0.882-0.257c-0.313-0-0.619 0.089-0.882 0.256s-0.471 0.406-0.599 0.687l-4.008 8.737-9.261 0.725c-0.311 0.024-0.609 0.136-0.857 0.323s-0.437 0.439-0.543 0.728c-0.106 0.289-0.125 0.602-0.055 0.902s0.226 0.573 0.449 0.787l6.844 6.57-2.421 10.321c-0.074 0.312-0.050 0.639 0.068 0.938s0.324 0.556 0.592 0.739c0.268 0.182 0.585 0.281 0.911 0.283s0.645-0.092 0.915-0.27l8.845-5.807 8.845 5.807c0.277 0.181 0.603 0.274 0.935 0.267s0.654-0.114 0.922-0.307c0.268-0.193 0.47-0.462 0.579-0.771s0.118-0.644 0.028-0.958l-2.971-10.238 7.369-6.53c0.482-0.429 0.66-1.097 0.452-1.704z"></path>
            <path fill="#f3cd03" style="fill: var(--color2, #f3cd03)" d="M71.393 11.487c-0.102-0.296-0.29-0.556-0.541-0.749s-0.553-0.308-0.87-0.333l-9.261-0.725-4.008-8.736c-0.128-0.281-0.335-0.52-0.598-0.688s-0.569-0.257-0.882-0.257c-0.313-0-0.619 0.089-0.882 0.256s-0.471 0.406-0.599 0.687l-4.008 8.737-9.261 0.725c-0.311 0.024-0.609 0.136-0.857 0.323s-0.436 0.439-0.543 0.728-0.125 0.602-0.055 0.902c0.070 0.3 0.226 0.573 0.449 0.787l6.844 6.57-2.421 10.321c-0.073 0.312-0.050 0.639 0.068 0.938s0.324 0.556 0.591 0.739c0.268 0.182 0.585 0.281 0.911 0.283s0.644-0.092 0.915-0.27l8.846-5.807 8.845 5.807c0.277 0.181 0.603 0.274 0.935 0.267s0.654-0.114 0.922-0.307c0.268-0.193 0.47-0.462 0.579-0.771s0.118-0.644 0.028-0.958l-2.971-10.238 7.369-6.53c0.483-0.429 0.66-1.097 0.452-1.704z"></path>
            <path fill="#f3cd03" style="fill: var(--color2, #f3cd03)" d="M110.376 11.487c-0.102-0.296-0.29-0.556-0.541-0.749s-0.553-0.308-0.87-0.333l-9.261-0.725-4.008-8.736c-0.128-0.281-0.335-0.52-0.598-0.688s-0.569-0.257-0.882-0.257c-0.313-0-0.619 0.089-0.882 0.256s-0.471 0.406-0.599 0.687l-4.008 8.737-9.261 0.725c-0.311 0.024-0.609 0.136-0.857 0.323s-0.437 0.439-0.543 0.728c-0.106 0.289-0.125 0.602-0.055 0.902s0.226 0.573 0.449 0.787l6.844 6.57-2.42 10.321c-0.073 0.312-0.050 0.639 0.068 0.938s0.324 0.556 0.592 0.739c0.268 0.182 0.585 0.281 0.911 0.283s0.644-0.092 0.915-0.27l8.846-5.807 8.845 5.807c0.277 0.181 0.603 0.274 0.935 0.267s0.654-0.114 0.922-0.307c0.268-0.193 0.471-0.462 0.579-0.771s0.118-0.644 0.028-0.958l-2.971-10.238 7.369-6.53c0.482-0.429 0.66-1.097 0.452-1.704z"></path>
            <path fill="#f3cd03" style="fill: var(--color2, #f3cd03)" d="M149.369 11.487c-0.102-0.296-0.29-0.556-0.541-0.749s-0.553-0.308-0.869-0.333l-9.261-0.725-4.008-8.736c-0.128-0.281-0.335-0.52-0.598-0.688s-0.569-0.257-0.882-0.257-0.619 0.089-0.882 0.256c-0.263 0.167-0.471 0.406-0.599 0.687l-4.008 8.737-9.261 0.725c-0.311 0.024-0.609 0.136-0.857 0.323s-0.437 0.439-0.543 0.728c-0.106 0.289-0.125 0.602-0.055 0.902s0.226 0.573 0.449 0.787l6.844 6.57-2.42 10.321c-0.074 0.312-0.050 0.639 0.068 0.938s0.324 0.556 0.592 0.739c0.268 0.182 0.585 0.281 0.911 0.283s0.645-0.092 0.915-0.27l8.845-5.807 8.845 5.807c0.277 0.181 0.603 0.274 0.935 0.267s0.654-0.114 0.922-0.307 0.47-0.462 0.579-0.771c0.109-0.309 0.118-0.644 0.028-0.958l-2.971-10.238 7.369-6.53c0.482-0.429 0.66-1.097 0.452-1.704z"></path>
            <path fill="#f3cd03" style="fill: var(--color2, #f3cd03)" d="M163.291 19.716l-2.42 10.321c-0.075 0.313-0.052 0.64 0.065 0.94s0.323 0.558 0.591 0.74c0.268 0.183 0.586 0.281 0.912 0.283s0.645-0.093 0.916-0.273l8.845-5.807 8.846 5.807c0.276 0.181 0.603 0.274 0.935 0.267s0.654-0.114 0.923-0.307c0.268-0.193 0.469-0.462 0.578-0.771s0.119-0.644 0.028-0.958l-2.971-10.238 7.369-6.53c0.235-0.209 0.404-0.482 0.484-0.785s0.069-0.622-0.032-0.918c-0.103-0.296-0.29-0.556-0.54-0.748s-0.553-0.308-0.869-0.332l-9.262-0.726-4.008-8.736c-0.128-0.281-0.335-0.52-0.598-0.688s-0.569-0.257-0.882-0.257c-0.313 0-0.619 0.089-0.882 0.257s-0.47 0.406-0.598 0.688l-4.008 8.736-9.261 0.725c-0.311 0.024-0.609 0.136-0.857 0.323s-0.437 0.439-0.543 0.728c-0.106 0.289-0.125 0.602-0.056 0.902s0.226 0.573 0.45 0.787l6.845 6.57zM167.925 12.796c0.29-0.023 0.568-0.121 0.806-0.286s0.426-0.39 0.545-0.651l2.923-6.368 2.923 6.368c0.119 0.261 0.308 0.486 0.545 0.651s0.516 0.264 0.806 0.286l6.453 0.504-5.314 4.709c-0.461 0.409-0.645 1.040-0.476 1.628l2.035 7.014-6.069-3.985c-0.266-0.176-0.58-0.27-0.901-0.27s-0.634 0.094-0.901 0.27l-6.342 4.164 1.706-7.272c0.063-0.267 0.054-0.546-0.024-0.81s-0.225-0.502-0.424-0.694l-4.935-4.738 6.644-0.521z"></path>
        </symbol>
        <symbol id="icon-logo" viewBox="0 0 36 32">
            <path fill="#02bc6b" style="fill: var(--color3, #02bc6b)" d="M2.785 30.323c-1.532 0-2.785-1.241-2.785-2.757v-9.639h7.010v-0.011h4.213c1.086-0.028 2.005-0.965 2.005-2.068 0-1.13-0.947-2.068-2.089-2.068l-11.14 0.002v-2.759c0-1.516 1.253-2.757 2.785-2.757h8.355c2.117 0 3.927 0.744 5.403 2.233 1.504 1.461 2.256 3.253 2.256 5.349 0 2.068-0.724 3.86-2.2 5.321s-3.258 2.233-5.347 2.261h-5.681v4.136c0 1.516-1.253 2.757-2.785 2.757z"></path>
            <path fill="#02897a" style="fill: var(--color1, #02897a)" d="M22.309 5.067c3.077 2.959 4.627 6.644 4.627 10.832 0 4.118-1.486 7.8-4.515 10.768l-4.301-4.006c1.884-1.846 2.809-4.068 2.809-6.761 0-2.714-0.953-4.933-2.882-6.788l4.262-4.044z"></path>
            <path fill="#035b81" style="fill: var(--color4, #035b81)" d="M28.894 0c4.432 4.38 6.662 9.812 6.662 16.046 0 6.136-2.14 11.564-6.499 15.954l-4.151-4.015c3.247-3.27 4.838-7.236 4.838-11.939 0-4.75-1.645-8.713-4.962-11.992l4.113-4.053z"></path>
            <path fill="#028e37" style="fill: var(--color5, #028e37)" d="M0 23.454h5.57v4.113c0 1.516-1.253 2.757-2.785 2.757s-2.785-1.241-2.785-2.757v-4.113z"></path>
        </symbol>
        <symbol id="icon-mobile-screen" viewBox="0 0 21 32">
            <path  d="M16.935 2.286h-13.299c-1.377 0-2.494 1.152-2.494 2.571v22.286c0 1.42 1.117 2.571 2.494 2.571h13.299c1.377 0 2.494-1.152 2.494-2.571v-22.286c0-1.42-1.117-2.571-2.494-2.571zM12.779 26.238c0 0.52-0.374 0.905-0.831 0.905h-3.371c-0.41 0-0.784-0.386-0.784-0.857s0.374-0.857 0.831-0.857h3.325c0.457 0 0.831 0.386 0.831 0.809zM16.104 22.857h-11.636v-17.143h11.636v17.143z"></path>
        </symbol>
        <symbol id="icon-path" viewBox="0 0 45 32">
            <path fill="#fff" style="fill: var(--color6, #fff)" d="M42.169 0.638c-0.835-0.851-2.188-0.851-3.023 0l-25.606 26.102-9.843-10.033c-0.835-0.851-2.188-0.851-3.023 0s-0.835 2.23 0 3.081l11.354 11.574c0.834 0.851 2.189 0.85 3.023 0l27.117-27.643c0.835-0.851 0.835-2.23 0-3.081z"></path>
        </symbol>
        <symbol id="icon-triangle" viewBox="0 0 28 32">
            <path  d="M26.088 12.891c2.441 1.354 2.441 4.864 0 6.218l-21.155 11.739c-2.37 1.315-5.281-0.399-5.281-3.109v-23.477c0-2.71 2.911-4.424 5.281-3.109l21.155 11.739z"></path>
        </symbol>
        <symbol id="icon-circle-right" viewBox="0 0 34 32">
            <path fill="#2e3a59" style="fill: var(--color1, #2e3a59)" d="M18.672 17.6h-9.872v-3.2h9.872l-4.128-4.144 2.256-2.256 8 8-8 8-2.256-2.256 4.128-4.144z"></path>
            <path fill="#2e3a59" style="fill: var(--color1, #2e3a59)" d="M0.8 16c0 8.836 7.163 16 16 16s16-7.164 16-16c0-8.837-7.164-16-16-16s-16 7.163-16 16zM4 16c0-7.069 5.731-12.8 12.8-12.8s12.8 5.731 12.8 12.8c0 7.069-5.731 12.8-12.8 12.8s-12.8-5.731-12.8-12.8z"></path>
        </symbol>
        <symbol id="icon-enterpreneur" viewBox="0 0 32 32">
            <path fill="#d6b1ff" style="fill: var(--color1, #d6b1ff)" d="M24 13.333h8l-4-5.333-4 5.333zM24 18.667h8l-4 5.333-4-5.333z"></path>
            <path fill="#02897a" style="fill: var(--color2, #02897a)" d="M1.333 0h8v32h-8c-0.354 0-0.693-0.141-0.943-0.391s-0.391-0.589-0.391-0.943v-29.333c0-0.354 0.14-0.693 0.391-0.943s0.589-0.391 0.943-0.391z"></path>
            <path fill="#02897a" style="fill: var(--color2, #02897a)" d="M12 0h8c0.354 0 0.693 0.14 0.943 0.391s0.391 0.589 0.391 0.943v29.333c0 0.354-0.141 0.693-0.391 0.943s-0.589 0.391-0.943 0.391h-8v-32z"></path>
        </symbol>
        <symbol id="icon-accountants" viewBox="0 0 32 32">
            <path fill="#d6b1ff" style="fill: var(--color1, #d6b1ff)" d="M28 32h-12c-0.354 0-0.693-0.141-0.943-0.391s-0.391-0.589-0.391-0.943v-2.667c0-0.354 0.141-0.693 0.391-0.943s0.589-0.391 0.943-0.391h12c0.354 0 0.693 0.141 0.943 0.391s0.391 0.589 0.391 0.943v2.667c0 0.354-0.141 0.693-0.391 0.943s-0.589 0.391-0.943 0.391z"></path>
            <path fill="#11b5e4" style="fill: var(--color3, #11b5e4)" d="M28 0h-24c-0.354 0-0.693 0.14-0.943 0.391s-0.391 0.589-0.391 0.943v2.667c0 0.354 0.14 0.693 0.391 0.943s0.589 0.391 0.943 0.391h24c0.354 0 0.693-0.14 0.943-0.391s0.391-0.589 0.391-0.943v-2.667c0-0.354-0.141-0.693-0.391-0.943s-0.589-0.391-0.943-0.391z"></path>
            <path fill="#11b5e4" style="fill: var(--color3, #11b5e4)" d="M28 8h-24c-0.354 0-0.693 0.14-0.943 0.391s-0.391 0.589-0.391 0.943v13.333c0 0.354 0.14 0.693 0.391 0.943s0.589 0.391 0.943 0.391h24c0.354 0 0.693-0.141 0.943-0.391s0.391-0.589 0.391-0.943v-13.333c0-0.354-0.141-0.693-0.391-0.943s-0.589-0.391-0.943-0.391z"></path>
        </symbol>
        <symbol id="icon-universities" viewBox="0 0 32 32">
            <path fill="#d6b1ff" style="fill: var(--color1, #d6b1ff)" d="M6.667 1.333h-4c-0.354 0-0.693 0.14-0.943 0.391s-0.391 0.589-0.391 0.943v26.667c0 0.354 0.14 0.693 0.391 0.943s0.589 0.391 0.943 0.391h4v-29.333z"></path>
            <path fill="#f03e3d" style="fill: var(--color4, #f03e3d)" d="M9.333 30.667h13.333v-29.333h-13.333v29.333zM16 25.333c-0.354 0-0.693-0.141-0.943-0.391s-0.391-0.589-0.391-0.943c0-0.354 0.141-0.693 0.391-0.943s0.589-0.391 0.943-0.391c0.354 0 0.693 0.141 0.943 0.391s0.391 0.589 0.391 0.943c0 0.354-0.141 0.693-0.391 0.943s-0.589 0.391-0.943 0.391zM16 6.667c0.354 0 0.693 0.14 0.943 0.391s0.391 0.589 0.391 0.943c0 0.354-0.141 0.693-0.391 0.943s-0.589 0.391-0.943 0.391c-0.354 0-0.693-0.14-0.943-0.391s-0.391-0.589-0.391-0.943c0-0.354 0.141-0.693 0.391-0.943s0.589-0.391 0.943-0.391zM16 14.667c0.354 0 0.693 0.141 0.943 0.391s0.391 0.589 0.391 0.943c0 0.354-0.141 0.693-0.391 0.943s-0.589 0.391-0.943 0.391c-0.354 0-0.693-0.141-0.943-0.391s-0.391-0.589-0.391-0.943c0-0.354 0.141-0.693 0.391-0.943s0.589-0.391 0.943-0.391z"></path>
            <path fill="#f03e3d" style="fill: var(--color4, #f03e3d)" d="M29.333 1.333h-4v29.333h4c0.354 0 0.693-0.141 0.943-0.391s0.391-0.589 0.391-0.943v-26.667c0-0.354-0.141-0.693-0.391-0.943s-0.589-0.391-0.943-0.391z"></path>
        </symbol>
        <symbol id="icon-activity" viewBox="0 0 32 32">
            <path fill="#000" style="fill: var(--color1, #000)" d="M17.996 4.024l-9.328 2.871c-3.399 1.046-4.849 3.681-4.008 7.285l2.305 9.881c0.841 3.604 3.243 5.053 6.642 4.007l9.328-2.871c3.399-1.046 4.84-3.678 3.999-7.283l-2.305-9.881c-0.841-3.604-3.234-5.056-6.633-4.010z"></path>
            <path fill="#e31313" style="fill: var(--color2, #e31313)" opacity="0.5" d="M17.329 8.444l-6.162 1.896c-2.245 0.691-3.218 2.366-2.69 4.632l1.449 6.212c0.529 2.266 2.1 3.158 4.345 2.467l6.162-1.896c2.245-0.691 3.212-2.364 2.684-4.63l-1.449-6.212c-0.529-2.266-2.094-3.16-4.34-2.469z"></path>
            <path fill="#f03e3d" style="fill: var(--color3, #f03e3d); stroke: var(--color1, #000)" stroke="#000" stroke-linejoin="round" stroke-linecap="round" stroke-miterlimit="4" stroke-width="0.4776" d="M24.15 8.977h-8.816c-1.789 0-3.297 0.691-4.355 1.902-1.056 1.209-1.649 2.919-1.649 4.939v9.112c0 2.014 0.593 3.722 1.649 4.929 1.058 1.21 2.566 1.901 4.355 1.901h8.816c1.789 0 3.295-0.691 4.35-1.901 1.053-1.207 1.644-2.915 1.644-4.929v-9.112c0-2.020-0.591-3.73-1.644-4.939-1.056-1.212-2.561-1.903-4.35-1.903z"></path>
            <path fill="#000" style="fill: var(--color1, #000)" d="M30.984 7.578c-0.825 0-1.494 0.734-1.494 1.639s0.669 1.639 1.494 1.639c0.825 0 1.494-0.734 1.494-1.639 0-0.435-0.157-0.851-0.438-1.159s-0.66-0.48-1.056-0.48z"></path>
            <path fill="#000" style="fill: var(--color1, #000)" d="M25.057 18.394l-2.906 4.113c-0.122 0.179-0.306 0.295-0.508 0.323s-0.406-0.036-0.565-0.176l-2.79-2.399-2.512 3.565c-0.182 0.317-0.536 0.459-0.862 0.346s-0.541-0.452-0.524-0.826c-0.002-0.185 0.055-0.365 0.161-0.509l3.004-4.25c0.121-0.177 0.302-0.294 0.502-0.323s0.403 0.031 0.562 0.167l2.79 2.409 2.45-3.457c0.118-0.178 0.297-0.297 0.495-0.328s0.401 0.027 0.56 0.161c0.328 0.282 0.392 0.799 0.143 1.165v0.020z"></path>
        </symbol>
        <symbol id="icon-chart" viewBox="0 0 32 32">
            <path fill="#000" style="fill: var(--color1, #000)" d="M16.507 3.263l-9.091 2.599c-3.313 0.947-4.687 3.486-3.799 7.021l2.433 9.69c0.888 3.534 3.268 5 6.58 4.053l9.091-2.599c3.313-0.947 4.678-3.484 3.791-7.018l-2.433-9.69c-0.888-3.534-3.259-5.003-6.572-4.056z"></path>
            <path fill="#11b5e4" style="fill: var(--color4, #11b5e4)" opacity="0.5" d="M20.987 15.961l-1.651-6.672c-0.599-2.42-2.098-3.505-4.068-2.95l-6.674 1.88c-2.003 0.564-2.779 2.29-2.18 4.71l1.651 6.672c0.608 2.459 2.072 3.512 4.074 2.948l6.674-1.88c1.971-0.555 2.782-2.248 2.173-4.708z"></path>
            <path fill="#00acdd" style="fill: var(--color5, #00acdd)" d="M24.411 7.834h-9.411c-3.429 0-5.373 2.073-5.373 5.732v10.031c0 3.659 1.943 5.732 5.373 5.732h9.411c3.429 0 5.364-2.073 5.364-5.732v-10.031c0-3.659-1.934-5.732-5.364-5.732z"></path>
            <path fill="#000" style="fill: var(--color1, #000)" d="M24.411 8.278c0.245 0 0.444-0.199 0.444-0.444s-0.199-0.444-0.444-0.444v0.889zM24.411 7.389c-0.245 0-0.444 0.199-0.444 0.444s0.199 0.444 0.444 0.444v-0.889zM24.411 7.389h-9.411v0.889h9.411v-0.889zM15 7.389c-1.806 0-3.279 0.548-4.297 1.634-1.014 1.082-1.52 2.638-1.52 4.542h0.889c0-1.754 0.465-3.065 1.28-3.934 0.811-0.865 2.024-1.353 3.648-1.353v-0.889zM9.183 13.566v10.031h0.889v-10.031h-0.889zM9.183 23.597c0 1.905 0.506 3.46 1.52 4.542 1.018 1.086 2.491 1.634 4.297 1.634v-0.889c-1.624 0-2.837-0.488-3.648-1.353-0.815-0.869-1.28-2.18-1.28-3.934h-0.889zM15 29.774h9.411v-0.889h-9.411v0.889zM24.411 29.774c1.806 0 3.277-0.548 4.293-1.635 1.012-1.082 1.516-2.638 1.516-4.542h-0.889c0 1.755-0.463 3.066-1.276 3.935-0.808 0.865-2.019 1.353-3.643 1.353v0.889zM30.219 23.597v-10.031h-0.889v10.031h0.889zM30.219 13.566c0-1.904-0.504-3.46-1.516-4.542-1.016-1.087-2.487-1.635-4.293-1.635v0.889c1.624 0 2.835 0.488 3.643 1.353 0.813 0.869 1.276 2.18 1.276 3.935h0.889z"></path>
            <path fill="#000" style="fill: var(--color1, #000)" d="M19.736 12.229c-0.457 0-0.833 0.401-0.833 0.898v10.91c0 0.487 0.376 0.889 0.833 0.889 0.466 0 0.842-0.401 0.842-0.889v-10.91c0-0.497-0.376-0.898-0.842-0.898zM15.035 15.754c-0.457 0-0.833 0.401-0.833 0.898v7.385c0 0.487 0.376 0.889 0.833 0.889 0.466 0 0.842-0.401 0.842-0.889v-7.385c0-0.497-0.376-0.898-0.842-0.898zM23.533 20.55c0-0.497 0.376-0.898 0.842-0.898 0.457 0 0.833 0.401 0.833 0.898v3.487c0 0.487-0.376 0.889-0.842 0.889-0.457 0-0.833-0.401-0.833-0.889v-3.487z"></path>
            <path fill="#000" style="fill: var(--color1, #000)" d="M19.081 13.127c0-0.411 0.308-0.72 0.655-0.72v-0.356c-0.567 0-1.011 0.493-1.011 1.076h0.356zM19.081 24.037v-10.91h-0.356v10.91h0.356zM19.736 24.748c-0.348 0-0.655-0.311-0.655-0.711h-0.356c0 0.574 0.445 1.066 1.011 1.066v-0.356zM20.4 24.037c0 0.399-0.306 0.711-0.664 0.711v0.356c0.573 0 1.019-0.491 1.019-1.066h-0.356zM20.4 13.127v10.91h0.356v-10.91h-0.356zM19.736 12.406c0.357 0 0.664 0.311 0.664 0.72h0.356c0-0.584-0.445-1.076-1.019-1.076v0.356zM14.38 16.652c0-0.411 0.308-0.72 0.655-0.72v-0.356c-0.567 0-1.011 0.493-1.011 1.076h0.356zM14.38 24.037v-7.385h-0.356v7.385h0.356zM15.035 24.748c-0.348 0-0.655-0.311-0.655-0.711h-0.356c0 0.574 0.445 1.066 1.011 1.066v-0.356zM15.699 24.037c0 0.399-0.306 0.711-0.664 0.711v0.356c0.573 0 1.019-0.491 1.019-1.066h-0.356zM15.699 16.652v7.385h0.356v-7.385h-0.356zM15.035 15.932c0.357 0 0.664 0.311 0.664 0.72h0.356c0-0.584-0.445-1.076-1.019-1.076v0.356zM24.375 19.474c-0.575 0-1.020 0.492-1.020 1.076h0.356c0-0.41 0.307-0.72 0.664-0.72v-0.356zM25.385 20.55c0-0.583-0.444-1.076-1.011-1.076v0.356c0.347 0 0.655 0.309 0.655 0.72h0.356zM25.385 24.037v-3.487h-0.356v3.487h0.356zM24.366 25.104c0.573 0 1.020-0.491 1.020-1.066h-0.356c0 0.399-0.306 0.711-0.664 0.711v0.356zM23.355 24.037c0 0.574 0.445 1.066 1.011 1.066v-0.356c-0.348 0-0.655-0.311-0.655-0.711h-0.356zM23.355 20.55v3.487h0.356v-3.487h-0.356z"></path>
        </symbol>
        <symbol id="icon-airbnb-logo" viewBox="0 0 102 32">
            <path fill="#ff385c" style="fill: var(--color7, #ff385c)" d="M29.171 22.679c-0.16-0.39-0.309-0.8-0.469-1.15l-0.738-1.67-0.030-0.030c-2.195-4.8-4.539-9.68-7.023-14.48l-0.1-0.2c-0.249-0.47-0.499-0.99-0.758-1.47-0.319-0.57-0.629-1.18-1.137-1.76-0.496-0.607-1.12-1.096-1.827-1.432s-1.48-0.51-2.263-0.51c-0.783 0-1.556 0.174-2.263 0.51s-1.332 0.825-1.827 1.432c-0.469 0.58-0.818 1.19-1.137 1.76-0.249 0.52-0.499 1.030-0.758 1.5l-0.1 0.2c-2.444 4.8-4.829 9.68-7.023 14.48l-0.060 0.060c-0.219 0.52-0.479 1.060-0.728 1.64-0.16 0.35-0.319 0.73-0.479 1.15-0.431 1.1-0.569 2.293-0.399 3.463s0.64 2.274 1.365 3.206 1.68 1.658 2.77 2.107c1.090 0.449 2.279 0.606 3.448 0.455 1.121-0.148 2.2-0.522 3.172-1.1 1.297-0.73 2.544-1.79 3.941-3.32 1.397 1.53 2.674 2.59 3.941 3.33 1.218 0.717 2.598 1.113 4.011 1.15 1.635 0.007 3.218-0.58 4.456-1.651s2.047-2.556 2.278-4.179c0.267-1.166 0.177-2.386-0.259-3.5v0.010zM14.845 24.339c-1.716-2.2-2.833-4.22-3.212-5.95-0.157-0.641-0.191-1.306-0.1-1.96 0.070-0.51 0.259-0.96 0.519-1.34 0.599-0.87 1.646-1.41 2.793-1.41 0.545-0.017 1.085 0.102 1.573 0.347s0.907 0.606 1.221 1.053c0.259 0.4 0.449 0.84 0.509 1.35 0.1 0.58 0.060 1.25-0.1 1.96-0.379 1.7-1.497 3.74-3.202 5.95zM27.555 25.819c-0.113 0.824-0.44 1.604-0.948 2.262s-1.178 1.171-1.945 1.488c-0.758 0.32-1.596 0.41-2.414 0.32-0.798-0.1-1.596-0.36-2.414-0.84-1.358-0.842-2.58-1.887-3.622-3.1 2.095-2.6 3.362-4.97 3.841-7.080 0.229-1 0.259-1.9 0.16-2.73-0.125-0.787-0.417-1.537-0.858-2.2-0.503-0.719-1.175-1.303-1.956-1.7s-1.648-0.597-2.523-0.58c-1.846 0-3.492 0.86-4.489 2.27-0.449 0.661-0.739 1.418-0.848 2.21-0.13 0.84-0.1 1.77 0.16 2.73 0.479 2.11 1.776 4.51 3.841 7.1-1.024 1.236-2.248 2.291-3.621 3.12-0.828 0.48-1.616 0.73-2.414 0.83-1.241 0.159-2.495-0.179-3.489-0.941s-1.647-1.887-1.819-3.129c-0.1-0.8-0.030-1.6 0.289-2.5 0.1-0.32 0.249-0.64 0.409-1.020 0.219-0.52 0.479-1.060 0.728-1.6l0.040-0.070c2.155-4.77 4.509-9.64 6.954-14.41l0.1-0.2c0.249-0.48 0.499-0.99 0.758-1.47 0.259-0.51 0.539-1 0.898-1.4 0.311-0.372 0.699-0.671 1.138-0.876s0.917-0.312 1.401-0.312c0.484 0 0.962 0.106 1.401 0.312s0.827 0.504 1.138 0.876c0.349 0.4 0.638 0.89 0.898 1.4 0.249 0.48 0.499 1 0.758 1.47l0.1 0.2c2.434 4.77 4.789 9.64 6.984 14.41l0.030 0.030c0.259 0.52 0.479 1.1 0.728 1.6 0.16 0.39 0.319 0.7 0.419 1.030 0.19 0.9 0.289 1.7 0.19 2.5zM41.442 24.119c-0.752 0.011-1.496-0.148-2.179-0.465s-1.284-0.784-1.762-1.365c-1.073-1.24-1.643-2.839-1.596-4.48-0.016-1.677 0.572-3.303 1.656-4.58 0.502-0.589 1.126-1.061 1.829-1.383s1.468-0.484 2.241-0.477c0.727-0.020 1.448 0.146 2.093 0.482s1.196 0.831 1.598 1.438l0.1-1.57h2.913v12.080h-2.923l-0.1-1.76c-0.415 0.649-0.988 1.18-1.666 1.544s-1.437 0.548-2.205 0.536zM42.2 21.239c0.579 0 1.087-0.16 1.566-0.45 0.439-0.32 0.798-0.74 1.078-1.25 0.249-0.51 0.379-1.12 0.379-1.8 0.039-0.591-0.076-1.181-0.333-1.714s-0.648-0.99-1.134-1.326c-0.467-0.292-1.006-0.446-1.556-0.446s-1.089 0.155-1.556 0.446c-0.439 0.32-0.798 0.74-1.077 1.25-0.264 0.562-0.394 1.179-0.379 1.8-0.039 0.591 0.076 1.181 0.333 1.714s0.648 0.99 1.134 1.326c0.469 0.29 0.978 0.45 1.546 0.45zM53.324 8.459c0 0.35-0.060 0.67-0.22 0.93-0.16 0.25-0.379 0.48-0.668 0.64s-0.599 0.22-0.918 0.22-0.639-0.060-0.928-0.22c-0.274-0.153-0.504-0.373-0.668-0.64-0.154-0.285-0.23-0.606-0.22-0.93 0-0.36 0.070-0.68 0.22-0.93 0.16-0.3 0.389-0.48 0.668-0.64 0.289-0.16 0.599-0.23 0.928-0.23 0.318-0.007 0.632 0.068 0.911 0.219s0.516 0.372 0.685 0.641c0.145 0.292 0.217 0.614 0.21 0.94zM49.932 23.759v-12.060h3.172v12.080h-3.182l0.010-0.020zM61.585 14.859v0.040c-0.15-0.070-0.349-0.1-0.499-0.13-0.2-0.040-0.359-0.040-0.549-0.040-0.888 0-1.556 0.26-1.995 0.8-0.479 0.55-0.698 1.32-0.698 2.31v5.93h-3.182v-12.080h2.923l0.1 1.83c0.319-0.64 0.698-1.12 1.237-1.48 0.536-0.35 1.167-0.524 1.806-0.5 0.23 0 0.449 0.020 0.639 0.060 0.1 0.030 0.16 0.030 0.219 0.060v3.2zM62.862 23.759v-17.020h3.173v6.5c0.449-0.58 0.957-1.030 1.596-1.38 1.011-0.497 2.159-0.638 3.26-0.4s2.089 0.84 2.806 1.71c1.076 1.243 1.646 2.846 1.596 4.49 0.017 1.677-0.572 3.303-1.656 4.58-0.502 0.589-1.126 1.061-1.829 1.383s-1.469 0.484-2.241 0.477c-0.727 0.020-1.448-0.146-2.093-0.482s-1.196-0.831-1.598-1.438l-0.1 1.57-2.913 0.030v-0.020zM68.997 21.239c0.569 0 1.078-0.16 1.556-0.45 0.439-0.32 0.798-0.74 1.078-1.25 0.259-0.51 0.379-1.12 0.379-1.8 0-0.67-0.12-1.28-0.379-1.79-0.262-0.492-0.63-0.919-1.078-1.25-0.467-0.292-1.006-0.446-1.556-0.446s-1.089 0.155-1.556 0.446c-0.449 0.32-0.799 0.74-1.088 1.25-0.264 0.562-0.394 1.179-0.379 1.8-0.039 0.591 0.076 1.181 0.333 1.714s0.648 0.99 1.134 1.326c0.468 0.29 0.977 0.45 1.556 0.45zM76.49 23.769v-12.080h2.923l0.1 1.57c0.367-0.602 0.888-1.094 1.51-1.427s1.319-0.492 2.022-0.463c0.804-0.014 1.594 0.21 2.272 0.644s1.213 1.059 1.539 1.796c0.349 0.76 0.539 1.7 0.539 2.75v7.24h-3.183v-6.82c0-0.84-0.189-1.5-0.568-1.99-0.38-0.48-0.898-0.74-1.556-0.74-0.479 0-0.898 0.1-1.267 0.32-0.349 0.23-0.638 0.52-0.858 0.93-0.222 0.414-0.332 0.88-0.319 1.35v6.92h-3.153zM88.98 23.769v-17.040h3.182v6.5c0.431-0.583 0.992-1.058 1.638-1.386s1.359-0.501 2.084-0.504c0.751-0.011 1.496 0.148 2.179 0.465s1.284 0.784 1.762 1.365c1.068 1.242 1.634 2.841 1.586 4.48 0.018 1.677-0.571 3.304-1.656 4.58-0.502 0.589-1.126 1.061-1.829 1.383s-1.469 0.484-2.241 0.477c-0.727 0.020-1.448-0.146-2.093-0.482s-1.196-0.831-1.598-1.438l-0.090 1.57-2.923 0.030zM95.146 21.239c0.579 0 1.087-0.16 1.556-0.45 0.449-0.32 0.798-0.74 1.087-1.25 0.25-0.51 0.379-1.12 0.379-1.8 0.039-0.591-0.076-1.181-0.333-1.714s-0.648-0.99-1.133-1.326c-0.467-0.292-1.006-0.446-1.556-0.446s-1.089 0.155-1.556 0.446c-0.439 0.32-0.798 0.74-1.077 1.25-0.278 0.557-0.409 1.177-0.38 1.8-0.038 0.591 0.076 1.181 0.333 1.714s0.648 0.99 1.134 1.326c0.469 0.29 0.948 0.45 1.546 0.45z"></path>
        </symbol>
        <symbol id="icon-fedex-logo" viewBox="0 0 107 32">
            <path fill="#f60" style="fill: var(--color9, #f60)" d="M79.321 31.042l8.896-9.852-8.896-9.854h9.386l4.406 4.786 4.242-4.786h9.058l-8.853 9.813 8.975 9.893h-9.425l-4.366-4.826-4.325 4.826h-9.099z"></path>
            <path fill="#f60" style="fill: var(--color9, #f60)" d="M79.321 6.919h-10.075v4.417h10.075v6.657h-10.075v6.111h10.075v6.938h-17.48v-31.042h17.48v6.919z"></path>
            <path fill="#652c8f" style="fill: var(--color10, #652c8f)" d="M54.468 0v12.704h-0.081c-1.633-1.85-3.672-2.492-6.039-2.492-4.848 0-8.499 3.248-9.781 7.543-1.462-4.732-5.232-7.632-10.822-7.632-4.54 0-8.125 2.009-9.996 5.282v-4.068h-9.384v-4.417h10.241v-6.92h-18.605v31.043h8.365v-13.049h8.338c-0.249 0.959-0.381 1.985-0.381 3.068 0 6.475 5.018 11.019 11.423 11.019 5.386 0 8.935-2.492 10.812-7.036h-7.168c-0.97 1.365-1.705 1.77-3.644 1.77-2.248 0-4.186-1.933-4.186-4.225h14.597c0.633 5.143 4.698 9.579 10.275 9.579 2.406 0 4.609-1.167 5.956-3.136h0.081v2.010h7.374v-31.042h-7.374zM23.791 18.086c0.465-1.972 2.016-3.26 3.953-3.26 2.132 0 3.604 1.249 3.992 3.26 0.163 0-7.945 0-7.945 0zM49.993 26.316c-2.718 0-4.407-2.496-4.407-5.103 0-2.786 1.469-5.466 4.407-5.466 3.046 0 4.26 2.679 4.26 5.466-0 2.642-1.286 5.103-4.26 5.103z"></path>
        </symbol>
        <symbol id="icon-Frame" viewBox="0 0 32 32">
            <path fill="#02897a" style="fill: var(--color2, #02897a)" d="M16 29.333c7.352 0 13.333-5.981 13.333-13.333s-5.981-13.333-13.333-13.333c-7.352 0-13.333 5.981-13.333 13.333s5.981 13.333 13.333 13.333zM16 5.333c5.881 0 10.667 4.785 10.667 10.667s-4.785 10.667-10.667 10.667c-5.881 0-10.667-4.785-10.667-10.667s4.785-10.667 10.667-10.667z"></path>
            <path fill="#02897a" style="fill: var(--color2, #02897a)" d="M25.333 16c0-5.155-4.18-9.333-9.333-9.333v18.667c5.153 0 9.333-4.179 9.333-9.333z"></path>
        </symbol>
        <symbol id="icon-google-logo" viewBox="0 0 93 32">
            <path fill="#ea4335" style="fill: var(--color11, #ea4335)" d="M39.764 16.41c0 4.442-3.432 7.715-7.644 7.715s-7.644-3.273-7.644-7.715c0-4.473 3.432-7.715 7.644-7.715s7.644 3.242 7.644 7.715zM36.418 16.41c0-2.776-1.989-4.675-4.298-4.675s-4.298 1.899-4.298 4.675c0 2.748 1.989 4.675 4.298 4.675s4.298-1.93 4.298-4.675z"></path>
            <path fill="#fbbc05" style="fill: var(--color12, #fbbc05)" d="M56.253 16.41c0 4.442-3.432 7.715-7.644 7.715s-7.644-3.273-7.644-7.715c0-4.47 3.432-7.715 7.644-7.715s7.644 3.242 7.644 7.715zM52.907 16.41c0-2.776-1.989-4.675-4.298-4.675s-4.298 1.899-4.298 4.675c0 2.748 1.989 4.675 4.298 4.675s4.298-1.93 4.298-4.675z"></path>
            <path fill="#4285f4" style="fill: var(--color13, #4285f4)" d="M72.055 9.162v13.85c0 5.697-3.318 8.024-7.242 8.024-3.693 0-5.915-2.501-6.754-4.546l2.913-1.228c0.519 1.256 1.79 2.737 3.837 2.737 2.511 0 4.067-1.569 4.067-4.522v-1.11h-0.116c-0.749 0.936-2.192 1.753-4.013 1.753-3.809 0-7.3-3.36-7.3-7.683 0-4.355 3.49-7.743 7.3-7.743 1.818 0 3.26 0.817 4.013 1.725h0.116v-1.256h3.178v-0.004zM69.115 16.438c0-2.717-1.79-4.703-4.068-4.703-2.308 0-4.242 1.986-4.242 4.703 0 2.689 1.934 4.647 4.242 4.647 2.278 0 4.068-1.958 4.068-4.647z"></path>
            <path fill="#34a853" style="fill: var(--color14, #34a853)" d="M77.294 1.043v22.609h-3.263v-22.609h3.263z"></path>
            <path fill="#ea4335" style="fill: var(--color11, #ea4335)" d="M90.012 18.95l2.597 1.753c-0.838 1.256-2.858 3.419-6.348 3.419-4.328 0-7.561-3.388-7.561-7.715 0-4.588 3.26-7.715 7.187-7.715 3.954 0 5.888 3.186 6.52 4.908l0.347 0.876-10.186 4.271c0.78 1.548 1.992 2.337 3.693 2.337 1.704 0 2.886-0.849 3.751-2.136zM82.018 16.174l6.809-2.863c-0.374-0.964-1.501-1.635-2.828-1.635-1.7 0-4.067 1.52-3.981 4.497z"></path>
            <path fill="#4285f4" style="fill: var(--color13, #4285f4)" d="M12.123 14.403v-3.273h10.893c0.107 0.57 0.161 1.245 0.161 1.976 0 2.456-0.663 5.492-2.8 7.656-2.078 2.191-4.734 3.36-8.252 3.36-6.52 0-12.003-5.377-12.003-11.979s5.483-11.979 12.003-11.979c3.607 0 6.177 1.433 8.107 3.301l-2.281 2.31c-1.384-1.315-3.26-2.337-5.83-2.337-4.761 0-8.485 3.885-8.485 8.706s3.724 8.706 8.485 8.706c3.088 0 4.847-1.256 5.974-2.397 0.914-0.925 1.515-2.247 1.752-4.052l-7.726 0.003z"></path>
        </symbol>
        <symbol id="icon-microsoft-logo" viewBox="0 0 155 32">
            <path fill="#737373" style="fill: var(--color15, #737373)" d="M54.68 18.431l-0.923 2.53h-0.077c-0.154-0.571-0.436-1.439-0.898-2.481l-4.95-12.031h-4.847v19.175h3.206v-11.833c0-0.744 0-1.588-0.026-2.629-0.026-0.521-0.077-0.918-0.103-1.216h0.077c0.154 0.744 0.333 1.29 0.462 1.637l5.95 13.991h2.257l5.899-14.115c0.128-0.322 0.257-0.967 0.385-1.513h0.077c-0.077 1.414-0.128 2.679-0.154 3.448v12.155h3.411v-19.15h-4.668l-5.078 12.031zM67.657 11.808h3.334v13.743h-3.334v-13.743zM69.35 6.003c-0.564 0-1.026 0.198-1.411 0.546s-0.59 0.794-0.59 1.34c0 0.521 0.205 0.967 0.59 1.315s0.846 0.521 1.411 0.521 1.052-0.198 1.411-0.521c0.385-0.347 0.59-0.794 0.59-1.315s-0.205-0.967-0.59-1.34c-0.333-0.347-0.821-0.546-1.411-0.546zM82.815 11.684c-0.615-0.124-1.257-0.198-1.872-0.198-1.513 0-2.898 0.322-4.052 0.967s-2.077 1.538-2.667 2.654c-0.616 1.141-0.924 2.456-0.924 3.969 0 1.315 0.308 2.481 0.897 3.547 0.59 1.042 1.411 1.885 2.513 2.456 1.052 0.571 2.283 0.868 3.668 0.868 1.591 0 2.95-0.322 4.027-0.918l0.025-0.025v-2.977l-0.128 0.099c-0.487 0.347-1.052 0.645-1.616 0.819-0.59 0.198-1.129 0.298-1.59 0.298-1.334 0-2.385-0.372-3.129-1.191-0.769-0.794-1.154-1.885-1.154-3.25 0-1.414 0.385-2.53 1.18-3.349s1.847-1.24 3.129-1.24c1.077 0 2.18 0.347 3.18 1.042l0.128 0.099v-3.15l-0.025-0.025c-0.436-0.174-0.924-0.372-1.591-0.496zM93.817 11.584c-0.82 0-1.59 0.248-2.257 0.769-0.564 0.447-0.949 1.091-1.283 1.86h-0.025v-2.406h-3.334v13.743h3.334v-7.020c0-1.191 0.257-2.183 0.821-2.902 0.564-0.744 1.282-1.116 2.154-1.116 0.308 0 0.615 0.074 1 0.124 0.359 0.099 0.616 0.198 0.795 0.322l0.129 0.099v-3.225l-0.077-0.025c-0.231-0.149-0.692-0.223-1.257-0.223zM102.897 11.51c-2.334 0-4.207 0.67-5.514 1.985-1.334 1.315-1.975 3.126-1.975 5.408 0 2.133 0.667 3.87 1.95 5.135 1.282 1.24 3.026 1.885 5.206 1.885 2.283 0 4.104-0.67 5.412-2.009 1.334-1.34 1.975-3.126 1.975-5.333 0-2.183-0.616-3.919-1.873-5.184-1.205-1.265-2.975-1.885-5.18-1.885zM105.564 22.077c-0.615 0.769-1.59 1.141-2.796 1.141s-2.18-0.372-2.872-1.191c-0.692-0.769-1.026-1.885-1.026-3.299 0-1.464 0.359-2.58 1.026-3.374 0.692-0.794 1.641-1.191 2.847-1.191 1.18 0 2.103 0.372 2.77 1.141s1.025 1.885 1.025 3.349c-0.051 1.488-0.333 2.654-0.975 3.423zM117.387 17.513c-1.051-0.422-1.718-0.744-2.025-1.017-0.257-0.248-0.385-0.595-0.385-1.042 0-0.372 0.153-0.744 0.538-0.992s0.821-0.372 1.462-0.372c0.564 0 1.154 0.099 1.719 0.248s1.077 0.372 1.487 0.67l0.129 0.099v-3.026l-0.077-0.025c-0.385-0.149-0.897-0.298-1.513-0.422-0.615-0.099-1.18-0.149-1.641-0.149-1.59 0-2.898 0.372-3.924 1.191-1.026 0.769-1.513 1.811-1.513 3.026 0 0.645 0.103 1.215 0.334 1.687s0.564 0.918 1.025 1.29c0.462 0.347 1.129 0.744 2.052 1.116 0.769 0.322 1.359 0.571 1.719 0.769s0.59 0.422 0.769 0.595c0.128 0.198 0.205 0.447 0.205 0.769 0 0.918-0.718 1.364-2.18 1.364-0.564 0-1.154-0.099-1.847-0.322s-1.334-0.546-1.873-0.918l-0.128-0.099v3.15l0.077 0.025c0.487 0.223 1.077 0.372 1.795 0.546 0.719 0.124 1.359 0.223 1.924 0.223 1.719 0 3.129-0.372 4.129-1.191 1.025-0.794 1.564-1.811 1.564-3.126 0-0.918-0.257-1.736-0.821-2.357-0.743-0.595-1.667-1.215-3.001-1.712zM130.006 11.51c-2.334 0-4.207 0.67-5.514 1.985s-1.975 3.126-1.975 5.408c0 2.133 0.667 3.87 1.95 5.135 1.282 1.24 3.026 1.885 5.206 1.885 2.283 0 4.104-0.67 5.412-2.009 1.334-1.34 1.975-3.126 1.975-5.333 0-2.183-0.616-3.919-1.873-5.184-1.205-1.265-2.975-1.885-5.18-1.885zM132.647 22.077c-0.615 0.769-1.59 1.141-2.796 1.141-1.231 0-2.18-0.372-2.872-1.191-0.693-0.769-1.026-1.885-1.026-3.299 0-1.464 0.359-2.58 1.026-3.374 0.692-0.794 1.641-1.191 2.847-1.191 1.154 0 2.103 0.372 2.77 1.141s1.025 1.885 1.025 3.349c0 1.488-0.333 2.654-0.975 3.423zM154.884 14.462v-2.654h-3.36v-4.068l-0.103 0.025-3.257 0.943v3.101h-5.027v-1.736c0-0.794 0.206-1.414 0.564-1.811s0.898-0.595 1.564-0.595c0.462 0 0.949 0.099 1.488 0.322l0.128 0.074v-2.803l-0.077-0.025c-0.461-0.149-1.077-0.248-1.872-0.248-1 0-1.872 0.223-2.668 0.595-0.795 0.422-1.385 0.992-1.82 1.761-0.436 0.744-0.667 1.588-0.667 2.555v1.91h-2.334v2.629h2.334v11.113h3.359v-11.088h5.027v7.070c0 2.902 1.411 4.366 4.232 4.366 0.462 0 0.949-0.074 1.411-0.149 0.487-0.099 0.846-0.223 1.052-0.322l0.025-0.025v-2.654l-0.129 0.099c-0.205 0.124-0.385 0.223-0.692 0.298-0.256 0.074-0.487 0.099-0.667 0.099-0.666 0-1.128-0.149-1.462-0.521-0.308-0.347-0.461-0.918-0.461-1.761v-6.499h3.411z"></path>
            <path fill="#f25022" style="fill: var(--color16, #f25022)" d="M0 0h15.722v15.206h-15.722v-15.206z"></path>
            <path fill="#7fba00" style="fill: var(--color17, #7fba00)" d="M17.363 0h15.722v15.206h-15.722v-15.206z"></path>
            <path fill="#00a4ef" style="fill: var(--color18, #00a4ef)" d="M0 16.794h15.722v15.206h-15.722v-15.206z"></path>
            <path fill="#ffb900" style="fill: var(--color19, #ffb900)" d="M17.363 16.794h15.722v15.206h-15.722v-15.206z"></path>
        </symbol>
        <symbol id="icon-minus-circle" viewBox="0 0 32 32">
            <path fill="#02897a" style="fill: var(--color2, #02897a)" d="M0 16c0-8.832 7.168-16 16-16s16 7.168 16 16c0 8.832-7.168 16-16 16s-16-7.168-16-16zM8 17.6h16v-3.2h-16v3.2z"></path>
        </symbol>
        <symbol id="icon-plus-circle" viewBox="0 0 32 32">
            <path fill="#02897a" style="fill: var(--color2, #02897a)" d="M0 16c0-8.832 7.168-16 16-16s16 7.168 16 16c0 8.832-7.168 16-16 16s-16-7.168-16-16zM17.6 17.6h6.4v-3.2h-6.4v-6.4h-3.2v6.4h-6.4v3.2h6.4v6.4h3.2v-6.4z"></path>
        </symbol>
        <symbol id="icon-arrow" viewBox="0 0 21 32">
            <path d="M19.042 18.067l-17.21-17.21c-0.202-0.219-0.471-0.319-0.756-0.319-0.134 0-0.286 0.034-0.403 0.084-0.403 0.168-0.672 0.555-0.672 0.992v25.277c0 0.437 0.269 0.824 0.672 0.992 0.118 0.050 0.269 0.084 0.403 0.084 0.286 0 0.555-0.118 0.756-0.319l5.244-5.244 3.21 7.597c0.235 0.538 0.857 0.807 1.412 0.571l2.975-1.261c0.538-0.235 0.807-0.857 0.571-1.412l-3.378-8h6.42c0.437 0 0.824-0.269 0.992-0.672 0.168-0.387 0.084-0.857-0.235-1.16z"></path>
        </symbol>
        <symbol id="icon-play" viewBox="0 0 28 32">
            <path d="M26.088 12.891c2.441 1.354 2.441 4.864 0 6.218l-21.155 11.739c-2.37 1.315-5.281-0.399-5.281-3.109v-23.477c0-2.71 2.911-4.424 5.281-3.109l21.155 11.739z"></path>
        </symbol>
        <symbol id="dark-theme-icon" viewBox="0 0 24 24" fill="none">
            <path d="M12 22C17.514 22 22 17.514 22 12C22 6.486 17.514 2 12 2C6.486 2 2 6.486 2 12C2 17.514 6.486 22 12 22ZM12 4C16.411 4 20 7.589 20 12C20 16.411 16.411 20 12 20C7.589 20 4 16.411 4 12C4 7.589 7.589 4 12 4Z" fill="#02897A"/>
            <path d="M19 12C19 8.134 15.865 5 12 5V19C15.865 19 19 15.866 19 12Z" fill="#02897A"/>
        </symbol>
    </defs>
</svg>